<svg id="Layer_1" data-name="Layer 1" xmlns="http://www.w3.org/2000/svg" viewBox="0 0 294.82 135.86"><defs><style>.cls-1,.cls-4{fill:#44beb3;}.cls-1,.cls-2,.cls-3{fill-rule:evenodd;}.cls-2{fill:#665f7b;}.cls-3,.cls-6{fill:#675f7b;}.cls-4{font-size:18.3px;}.cls-4,.cls-6{font-family:Gotham-Bold, Gotham;font-weight:700;}.cls-5{letter-spacing:-0.01em;}.cls-6{font-size:20.33px;letter-spacing:0.29em;}.cls-7{letter-spacing:-0.02em;}</style></defs><title>devops</title><g id="Shape_1" data-name="Shape 1"><path class="cls-1" d="M1385.94,1533l-19.64-1.39.28-18.25c-47.92,45.13-7.38,90.76-7.38,90.76l19.36,1.53,1.53-19.5C1360.34,1555.5,1385.94,1533,1385.94,1533Z" transform="translate(-1343.18 -1494.86)"/></g><g id="Shape_2" data-name="Shape 2"><path class="cls-1" d="M1371.94,1509.81l-1.11,17.55,20.34,2.09c32-19.78,55.44,5.29,55.44,5.29l1.67-20.34,19,1.4C1422.65,1472.61,1371.94,1509.81,1371.94,1509.81Z" transform="translate(-1343.18 -1494.86)"/></g><g id="Shape_2_copy" data-name="Shape 2 copy"><path class="cls-1" d="M1440.55,1596.18c-32,19.79-55.44-5.3-55.44-5.3l-1.67,20.35-19-1.39c44.58,43.2,95.29,6,95.29,6l1.11-17.56Z" transform="translate(-1343.18 -1494.86)"/></g><g id="Shape_4" data-name="Shape 4"><polygon class="cls-1" points="129.97 26.58 110.12 24.91 108.44 45.59 165.28 108.7 167.58 89.69 187.22 90.73 129.97 26.58"/></g><g id="Shape_3" data-name="Shape 3"><polygon class="cls-2" points="174.89 16.55 101.76 98.11 121.4 99.78 121.4 118.59 194.54 38.56 195.58 19.27 174.89 16.55"/></g><g id="Shape_5" data-name="Shape 5"><path class="cls-2" d="M1590.1,1615l1.39-19.5s-28.14,19.78-56-5l-21.45-1.39-1.68,19.5s37.34,43.19,96.41,8.92Z" transform="translate(-1343.18 -1494.86)"/></g><g id="Shape_6" data-name="Shape 6"><path class="cls-3" d="M1522.12,1508.83l19.5,2-.84,19.5s24.24-19.22,52.66,1.12l21.18.28,1.11-18.67S1582.58,1475.12,1522.12,1508.83Z" transform="translate(-1343.18 -1494.86)"/></g><text class="cls-4" transform="translate(192.2 62.03)">Sea<tspan class="cls-5" x="33.76" y="0">r</tspan><tspan x="41.14" y="0">ch</tspan></text><text class="cls-6" transform="translate(42.37 75.36) scale(1.08 1)">Soft</text><text class="cls-4" transform="translate(193.51 87.03)"><tspan class="cls-7">A</tspan><tspan x="14.09" y="0">frica</tspan></text><g id="Shape_7" data-name="Shape 7"><path class="cls-2" d="M1618.8,1516.63l-2,18.67-20.34-.84s27.3,28.42-.84,57.68l-2.23,19.78,19.78,2.23S1665.05,1578.21,1618.8,1516.63Z" transform="translate(-1343.18 -1494.86)"/></g><path class="cls-2" d="M1610.72,1540.76" transform="translate(-1343.18 -1494.86)"/></svg>